{
	"asset":{
		"generator":"Khronos glTF Blender I/O v3.6.27",
		"version":"2.0"
	},
	"extensionsUsed":[
		"KHR_lights_punctual",
		"KHR_materials_transmission",
		"KHR_materials_ior"
	],
	"extensionsRequired":[
		"KHR_lights_punctual"
	],
	"extensions":{
		"KHR_lights_punctual":{
			"lights":[
				{
					"color":[
						1,
						1,
						1
					],
					"intensity":27175.70653294113,
					"type":"point",
					"name":"Point"
				},
				{
					"color":[
						1,
						1,
						1
					],
					"intensity":543.5141306588226,
					"spot":{
						"innerConeAngle":0.38027824387003584,
						"outerConeAngle":0.6257005333900452
					},
					"type":"spot",
					"name":"Spot"
				},
				{
					"color":[
						1,
						1,
						1
					],
					"intensity":543.5141306588226,
					"spot":{
						"innerConeAngle":0.43468699157922686,
						"outerConeAngle":0.6257005333900452
					},
					"type":"spot",
					"range":27.520000457763672,
					"name":"Spot.001"
				},
				{
					"color":[
						1,
						1,
						1
					],
					"intensity":27175.70653294113,
					"spot":{
						"innerConeAngle":0.11084820861273492,
						"outerConeAngle":0.18238693475723267
					},
					"type":"spot",
					"name":"Spot.002"
				}
			]
		}
	},
	"scene":0,
	"scenes":[
		{
			"name":"Scene",
			"nodes":[
				0,
				1,
				2,
				3,
				4,
				5,
				6,
				7,
				8,
				9
			]
		}
	],
	"nodes":[
		{
			"mesh":0,
			"name":"Icosphere.001"
		},
		{
			"mesh":1,
			"name":"Plane"
		},
		{
			"camera":0,
			"name":"Camera",
			"rotation":[
				0.01402087789028883,
				0.8189206123352051,
				-0.020019350573420525,
				0.5733861923217773
			],
			"translation":[
				6.629876136779785,
				1.4309730529785156,
				0.5610389709472656
			]
		},
		{
			"extensions":{
				"KHR_lights_punctual":{
					"light":0
				}
			},
			"name":"Point",
			"rotation":[
				-0.7071068286895752,
				0,
				0,
				0.7071068286895752
			],
			"translation":[
				0,
				5.352335453033447,
				0
			]
		},
		{
			"mesh":2,
			"name":"Cube"
		},
		{
			"extensions":{
				"KHR_lights_punctual":{
					"light":1
				}
			},
			"name":"Spot",
			"rotation":[
				0.6913985013961792,
				0.1272069662809372,
				-0.16670946776866913,
				0.691371500492096
			],
			"translation":[
				-11.500655174255371,
				2.252718210220337,
				-2.3912506103515625
			]
		},
		{
			"extensions":{
				"KHR_lights_punctual":{
					"light":2
				}
			},
			"name":"Spot.001",
			"rotation":[
				0.6913985013961792,
				0.1272069662809372,
				-0.16670946776866913,
				0.691371500492096
			],
			"translation":[
				-11.464228630065918,
				2.154423952102661,
				1.8408362865447998
			]
		},
		{
			"extensions":{
				"KHR_lights_punctual":{
					"light":3
				}
			},
			"name":"Spot.002",
			"rotation":[
				-0.6916548013687134,
				0.147015780210495,
				-0.1470157653093338,
				0.6916548013687134
			],
			"translation":[
				-16.324220657348633,
				8.34504222869873,
				-0.11213934421539307
			]
		},
		{
			"mesh":3,
			"name":"Cube.001"
		},
		{
			"mesh":4,
			"name":"Suzanne",
			"translation":[
				-19.624675750732422,
				1.8918495178222656,
				0
			]
		}
	],
	"cameras":[
		{
			"name":"Camera.001",
			"perspective":{
				"aspectRatio":1.7777777777777777,
				"yfov":0.7696185925605304,
				"zfar":1000,
				"znear":0.10000000149011612
			},
			"type":"perspective"
		}
	],
	"animations":[
		{
			"channels":[
				{
					"sampler":0,
					"target":{
						"node":9,
						"path":"rotation"
					}
				}
			],
			"name":"rotacion_cabeza",
			"samplers":[
				{
					"input":19,
					"interpolation":"LINEAR",
					"output":20
				}
			]
		}
	],
	"materials":[
		{
			"doubleSided":true,
			"name":"Material.002",
			"pbrMetallicRoughness":{
				"baseColorFactor":[
					0.2593557834625244,
					0.38509073853492737,
					0.8000000715255737,
					1
				],
				"metallicFactor":0,
				"roughnessFactor":0.5
			}
		},
		{
			"doubleSided":true,
			"name":"Material.004",
			"pbrMetallicRoughness":{
				"baseColorTexture":{
					"index":0
				},
				"metallicFactor":0,
				"roughnessFactor":0.5
			}
		},
		{
			"doubleSided":true,
			"name":"Material.003",
			"pbrMetallicRoughness":{
				"baseColorFactor":[
					0.8000000715255737,
					0.39594098925590515,
					0.2985864281654358,
					1
				],
				"metallicFactor":0,
				"roughnessFactor":0.5
			}
		},
		{
			"doubleSided":true,
			"extensions":{
				"KHR_materials_transmission":{
					"transmissionFactor":1
				},
				"KHR_materials_ior":{
					"ior":1.4500000476837158
				}
			},
			"name":"Material.001",
			"pbrMetallicRoughness":{
				"baseColorFactor":[
					0.8000000715255737,
					0,
					0.006038129795342684,
					1
				],
				"metallicFactor":0,
				"roughnessFactor":0
			}
		}
	],
	"meshes":[
		{
			"name":"Icosphere.014",
			"primitives":[
				{
					"attributes":{
						"POSITION":0,
						"NORMAL":1,
						"TEXCOORD_0":2
					},
					"indices":3,
					"material":0
				}
			]
		},
		{
			"name":"Plane.001",
			"primitives":[
				{
					"attributes":{
						"POSITION":4,
						"NORMAL":5,
						"TEXCOORD_0":6
					},
					"indices":7,
					"material":1
				}
			]
		},
		{
			"name":"Cube.001",
			"primitives":[
				{
					"attributes":{
						"POSITION":8,
						"NORMAL":9,
						"TEXCOORD_0":10
					},
					"indices":11,
					"material":2
				}
			]
		},
		{
			"name":"Cube.002",
			"primitives":[
				{
					"attributes":{
						"POSITION":12,
						"NORMAL":13,
						"TEXCOORD_0":14
					},
					"indices":11
				}
			]
		},
		{
			"name":"Suzanne",
			"primitives":[
				{
					"attributes":{
						"POSITION":15,
						"NORMAL":16,
						"TEXCOORD_0":17
					},
					"indices":18,
					"material":3
				}
			]
		}
	],
	"textures":[
		{
			"sampler":0,
			"source":0
		}
	],
	"images":[
		{
			"bufferView":8,
			"mimeType":"image/png",
			"name":"CheckerTest"
		}
	],
	"accessors":[
		{
			"bufferView":0,
			"componentType":5126,
			"count":2408,
			"max":[
				30.738826751708984,
				10,
				30.617385864257812
			],
			"min":[
				-30.73883056640625,
				-1.9073486328125e-05,
				-30.9241943359375
			],
			"type":"VEC3"
		},
		{
			"bufferView":1,
			"componentType":5126,
			"count":2408,
			"type":"VEC3"
		},
		{
			"bufferView":2,
			"componentType":5126,
			"count":2408,
			"type":"VEC2"
		},
		{
			"bufferView":3,
			"componentType":5123,
			"count":2424,
			"type":"SCALAR"
		},
		{
			"bufferView":4,
			"componentType":5126,
			"count":4,
			"max":[
				50,
				0,
				50
			],
			"min":[
				-50,
				0,
				-50
			],
			"type":"VEC3"
		},
		{
			"bufferView":5,
			"componentType":5126,
			"count":4,
			"type":"VEC3"
		},
		{
			"bufferView":6,
			"componentType":5126,
			"count":4,
			"type":"VEC2"
		},
		{
			"bufferView":7,
			"componentType":5123,
			"count":6,
			"type":"SCALAR"
		},
		{
			"bufferView":9,
			"componentType":5126,
			"count":24,
			"max":[
				0.2582690715789795,
				1.7699999809265137,
				0.2919740676879883
			],
			"min":[
				-0.2582690715789795,
				0,
				-0.2919740676879883
			],
			"type":"VEC3"
		},
		{
			"bufferView":10,
			"componentType":5126,
			"count":24,
			"type":"VEC3"
		},
		{
			"bufferView":11,
			"componentType":5126,
			"count":24,
			"type":"VEC2"
		},
		{
			"bufferView":12,
			"componentType":5123,
			"count":36,
			"type":"SCALAR"
		},
		{
			"bufferView":13,
			"componentType":5126,
			"count":24,
			"max":[
				-19.266082763671875,
				0.6249872446060181,
				0.6439595818519592
			],
			"min":[
				-20.553997039794922,
				-0.010813027620315552,
				-0.6439557671546936
			],
			"type":"VEC3"
		},
		{
			"bufferView":14,
			"componentType":5126,
			"count":24,
			"type":"VEC3"
		},
		{
			"bufferView":15,
			"componentType":5126,
			"count":24,
			"type":"VEC2"
		},
		{
			"bufferView":16,
			"componentType":5126,
			"count":1966,
			"max":[
				0.5019874572753906,
				0.5128459930419922,
				0.8774107694625854
			],
			"min":[
				-0.5910148620605469,
				-0.750625491142273,
				-0.877410888671875
			],
			"type":"VEC3"
		},
		{
			"bufferView":17,
			"componentType":5126,
			"count":1966,
			"type":"VEC3"
		},
		{
			"bufferView":18,
			"componentType":5126,
			"count":1966,
			"type":"VEC2"
		},
		{
			"bufferView":19,
			"componentType":5123,
			"count":2904,
			"type":"SCALAR"
		},
		{
			"bufferView":20,
			"componentType":5126,
			"count":51,
			"max":[
				1.6666666666666667
			],
			"min":[
				0
			],
			"type":"SCALAR"
		},
		{
			"bufferView":21,
			"componentType":5126,
			"count":51,
			"type":"VEC4"
		}
	],
	"bufferViews":[
		{
			"buffer":0,
			"byteLength":28896,
			"byteOffset":0,
			"target":34962
		},
		{
			"buffer":0,
			"byteLength":28896,
			"byteOffset":28896,
			"target":34962
		},
		{
			"buffer":0,
			"byteLength":19264,
			"byteOffset":57792,
			"target":34962
		},
		{
			"buffer":0,
			"byteLength":4848,
			"byteOffset":77056,
			"target":34963
		},
		{
			"buffer":0,
			"byteLength":48,
			"byteOffset":81904,
			"target":34962
		},
		{
			"buffer":0,
			"byteLength":48,
			"byteOffset":81952,
			"target":34962
		},
		{
			"buffer":0,
			"byteLength":32,
			"byteOffset":82000,
			"target":34962
		},
		{
			"buffer":0,
			"byteLength":12,
			"byteOffset":82032,
			"target":34963
		},
		{
			"buffer":0,
			"byteLength":144410,
			"byteOffset":82044
		},
		{
			"buffer":0,
			"byteLength":288,
			"byteOffset":226456,
			"target":34962
		},
		{
			"buffer":0,
			"byteLength":288,
			"byteOffset":226744,
			"target":34962
		},
		{
			"buffer":0,
			"byteLength":192,
			"byteOffset":227032,
			"target":34962
		},
		{
			"buffer":0,
			"byteLength":72,
			"byteOffset":227224,
			"target":34963
		},
		{
			"buffer":0,
			"byteLength":288,
			"byteOffset":227296,
			"target":34962
		},
		{
			"buffer":0,
			"byteLength":288,
			"byteOffset":227584,
			"target":34962
		},
		{
			"buffer":0,
			"byteLength":192,
			"byteOffset":227872,
			"target":34962
		},
		{
			"buffer":0,
			"byteLength":23592,
			"byteOffset":228064,
			"target":34962
		},
		{
			"buffer":0,
			"byteLength":23592,
			"byteOffset":251656,
			"target":34962
		},
		{
			"buffer":0,
			"byteLength":15728,
			"byteOffset":275248,
			"target":34962
		},
		{
			"buffer":0,
			"byteLength":5808,
			"byteOffset":290976,
			"target":34963
		},
		{
			"buffer":0,
			"byteLength":204,
			"byteOffset":296784
		},
		{
			"buffer":0,
			"byteLength":816,
			"byteOffset":296988
		}
	],
	"samplers":[
		{
			"magFilter":9729,
			"minFilter":9987
		}
	],
	"buffers":[
		{
			"byteLength":297804,
			"uri":"data:application/octet-stream;base64,"
		}
	]
}
